<svg xmlns="http://www.w3.org/2000/svg" width="151.529" height="42.171" viewBox="0 0 151.529 42.171">
  <g id="Group_77" data-name="Group 77" transform="translate(-509.664 -1147.119)">
    <g id="Group_77-2" data-name="Group 77" transform="translate(509.664 1147.119)">
      <path id="Path_403" data-name="Path 403" d="M543.348,1147.538v4.412a20.4,20.4,0,0,0-33.586,15.577s0,.01,0,.014l-.1-.014v19.7h7.258v-4.176l0-.009a20.4,20.4,0,0,0,33.658-15.514v-19.989Z" transform="translate(-509.664 -1147.119)" fill="#66b1b7"/>
    </g>
    <g id="Group_78" data-name="Group 78" transform="translate(515.652 1156.379)">
      <path id="Path_404" data-name="Path 404" d="M670.825,1383.028a4.342,4.342,0,0,0-2.593-1.1v-.011h-.09l-.071,0-.046,0-.048,0-.071,0-.09.008v0a4.342,4.342,0,0,0-2.593,1.1c-1.182.853-4.3,4.012-4.758,5.591a4.542,4.542,0,0,0,.729,4.076,4.619,4.619,0,0,0,3.621,1.528,3.818,3.818,0,0,0,.529-.035,3.1,3.1,0,0,0,1.851-1.045s.362-.439.561-.666a.381.381,0,0,1,.06-.055v.015l.123-.049a.379.379,0,0,1,.077-.02.356.356,0,0,1,.092.02l.12.032a.348.348,0,0,1,.064.057c.2.226.559.664.559.664a3.11,3.11,0,0,0,1.853,1.047c1.174.166,3.331-.268,4.15-1.494a4.54,4.54,0,0,0,.729-4.076C675.124,1387.041,672.007,1383.881,670.825,1383.028Z" transform="translate(-653.66 -1371.546)" fill="#fff"/>
      <path id="Path_405" data-name="Path 405" d="M768.983,1266.557a1.417,1.417,0,0,0,.7.179,1.831,1.831,0,0,0,.519-.08,6.922,6.922,0,0,0,4.532-5.364,2.913,2.913,0,0,0-.653-2.3,3.656,3.656,0,0,0-2.44-1.1h-.128c-2.513,0-3.426,1.891-3.746,3.487a7.4,7.4,0,0,0,.249,3.866A2.369,2.369,0,0,0,768.983,1266.557Z" transform="translate(-752.042 -1257.883)" fill="#fff"/>
      <path id="Path_406" data-name="Path 406" d="M842.844,1350.2a3.267,3.267,0,0,0-3.42.421,5.9,5.9,0,0,0-2.367,3.857,1.341,1.341,0,0,0,.412,1.18,3.057,3.057,0,0,0,1.992.548,7.749,7.749,0,0,0,1.328-.119c2.429-.507,3.177-1.652,3.529-2.47A2.723,2.723,0,0,0,842.844,1350.2Z" transform="translate(-815.666 -1342.175)" fill="#fff"/>
      <path id="Path_407" data-name="Path 407" d="M658.969,1266.651a1.827,1.827,0,0,0,.519.08,1.418,1.418,0,0,0,.7-.179,2.369,2.369,0,0,0,.969-1.317,7.4,7.4,0,0,0,.252-3.863c-.327-1.629-1.267-3.562-3.876-3.492a3.655,3.655,0,0,0-2.44,1.1,2.911,2.911,0,0,0-.653,2.3A6.921,6.921,0,0,0,658.969,1266.651Z" transform="translate(-648.304 -1257.878)" fill="#fff"/>
      <path id="Path_408" data-name="Path 408" d="M588.717,1354.469a5.9,5.9,0,0,0-2.366-3.858,3.265,3.265,0,0,0-3.422-.422,2.723,2.723,0,0,0-1.473,3.417c.352.818,1.1,1.964,3.531,2.47a7.707,7.707,0,0,0,1.326.119,3.059,3.059,0,0,0,1.992-.548A1.341,1.341,0,0,0,588.717,1354.469Z" transform="translate(-581.285 -1342.169)" fill="#fff"/>
    </g>
    <g id="Group_79" data-name="Group 79" transform="translate(556.724 1147.58)">
      <path id="Path_409" data-name="Path 409" d="M1079,1168.092c.862.064,2.264.064,2.264.064,4.815,0,7.078-2.073,7.078-7.207,0-3.029.064-8.322-6.218-8.322h-9.214v25.38H1079Zm0-10.682a2.074,2.074,0,0,1,.447-.063c2.614,0,2.87.764,2.87,3.443,0,2.582-1.435,2.582-2.551,2.582a6.98,6.98,0,0,1-.766-.031Z" transform="translate(-1072.884 -1152.628)" fill="#3c3938"/>
      <path id="Path_410" data-name="Path 410" d="M1303.36,1223.322v2.424c0,.255,0,1.816-1.244,1.816-1.371,0-1.371-1.562-1.371-3.315v-2.582h8V1216.4c0-3.954-2.137-6.186-6.7-6.186-4.591,0-6.823,2.487-6.823,6.568v8.29c0,4.146,2.327,6.217,6.855,6.217,7.014,0,6.663-5.037,6.663-7.971Zm-1.339-9.245c1.4,0,1.308,1.976,1.308,3.922h-2.774C1300.555,1216.053,1300.555,1214.077,1302.021,1214.077Z" transform="translate(-1276.615 -1205.403)" fill="#3c3938"/>
      <path id="Path_411" data-name="Path 411" d="M1500.22,1184.754v-10.108h1.467v-4.112h-1.467v-4.178h-5.548v4.178h-1.148v4.112h1.148v12.181c0,3.762,2.678,4.144,4.241,4.144a8.485,8.485,0,0,0,2.869-.317l-.031-3.923C1500.506,1186.635,1500.22,1186.762,1500.22,1184.754Z" transform="translate(-1458.332 -1165.208)" fill="#3c3938"/>
      <rect id="Rectangle_24" data-name="Rectangle 24" width="5.644" height="25.38" transform="translate(46.924 0)" fill="#3c3938"/>
      <path id="Path_412" data-name="Path 412" d="M1752.99,1230.784h5.325v-14.189c0-2.3,0-6.376-6.5-6.376-5.388,0-6.632,3.156-6.632,5.8a6.755,6.755,0,0,0,.063,1.147h4.974c.032-1.178-.127-3.283,1.5-3.283,1.148,0,1.148,1.4,1.148,1.594,0,4.5-8.035,1.818-8.035,9.852,0,2.424.383,5.962,4.5,5.994a5.515,5.515,0,0,0,3.667-1.784Zm-.127-5.037s0,2.2-1.212,2.041c-.669,0-1.211-.192-1.211-1.754,0,0-.032-3.317.988-4.146l1.435-1.148Z" transform="translate(-1688.626 -1205.403)" fill="#3c3938"/>
      <path id="Path_413" data-name="Path 413" d="M1956.381,1219.019c0-1.913,0-3.891,1.275-3.891.989,0,.989,1.212.989,2.137v13.519h5.739v-16.23c0-.669,0-4.336-4.05-4.336a4.013,4.013,0,0,0-4.208,3.125v-2.615h-5.388v20.055h5.644Z" transform="translate(-1877.321 -1205.403)" fill="#3c3938"/>
      <path id="Path_414" data-name="Path 414" d="M2167.715,1152.628v7.494c-.669-1.531-.957-2.679-3.762-2.679-4.241,0-4.241,3.762-4.241,4.879v9.5c0,2.9-.031,6.76,4.208,6.76a4.013,4.013,0,0,0,3.858-2.519v1.946h5.517v-25.38Zm0,19c0,2.677-1.115,2.742-1.338,2.742-1.021,0-1.021-1.434-1.021-2.392v-8.7c0-.032,0-1.626.957-1.626,1.4,0,1.4,2.008,1.4,3.7Z" transform="translate(-2068.826 -1152.628)" fill="#3c3938"/>
      <path id="Path_415" data-name="Path 415" d="M1077.246,1531.792l-2.291-8.1h-2.386l3.607,10.689h2.109l3.636-10.689h-2.32Z" transform="translate(-1072.57 -1492.671)" fill="#3c3938"/>
      <path id="Path_416" data-name="Path 416" d="M1217.987,1529.7h5.214v-1.876h-5.214v-2.261h5.657v-1.876h-7.861v10.689h8.13v-1.9h-5.926Z" transform="translate(-1203.81 -1492.671)" fill="#3c3938"/>
      <path id="Path_417" data-name="Path 417" d="M1337.934,1525.568h3.243v8.813h2.24v-8.813h3.213v-1.876h-8.7Z" transform="translate(-1315.749 -1492.671)" fill="#3c3938"/>
      <path id="Path_418" data-name="Path 418" d="M1474.386,1529.7h5.214v-1.876h-5.214v-2.261h5.657v-1.876h-7.861v10.689h8.13v-1.9h-5.926Z" transform="translate(-1438.774 -1492.671)" fill="#3c3938"/>
      <path id="Path_419" data-name="Path 419" d="M1613.917,1533.5q-.04-.43-.041-1.537a3.965,3.965,0,0,0-.356-1.964,2.179,2.179,0,0,0-1.011-.75,2.249,2.249,0,0,0,1.226-.956,2.934,2.934,0,0,0,.44-1.6,3,3,0,0,0-.626-1.863,3.243,3.243,0,0,0-2.741-1.14h-5.418v10.689h2.2v-4.2h2.291q1.177,0,1.5.466a3.071,3.071,0,0,1,.255,1.562,10.383,10.383,0,0,0,.062,1.3,6.315,6.315,0,0,0,.178.877h2.473v-.3A.631.631,0,0,1,1613.917,1533.5Zm-2.392-5.453a2.037,2.037,0,0,1-1.305.344h-2.625v-2.864h2.771a1.553,1.553,0,0,1,1.279.493,1.624,1.624,0,0,1-.119,2.026Z" transform="translate(-1560.846 -1492.671)" fill="#3c3938"/>
      <rect id="Rectangle_25" data-name="Rectangle 25" width="2.232" height="10.689" transform="translate(56.341 31.021)" fill="#3c3938"/>
      <path id="Path_420" data-name="Path 420" d="M1815.4,1531.138l-4.225-7.445h-2.356v10.689h2.087l.029-7.628,4.348,7.628h2.232v-10.689h-2.087Z" transform="translate(-1747.269 -1492.671)" fill="#3c3938"/>
      <path id="Path_421" data-name="Path 421" d="M1943.748,1523.692l-3.811,10.689h2.356l.742-2.2H1947l.683,2.2h2.415l-3.752-10.689Zm-.116,6.638,1.4-4.232,1.345,4.232Z" transform="translate(-1867.424 -1492.671)" fill="#3c3938"/>
      <path id="Path_422" data-name="Path 422" d="M2096.976,1533.5q-.041-.43-.041-1.537a3.964,3.964,0,0,0-.356-1.964,2.179,2.179,0,0,0-1.011-.75,2.249,2.249,0,0,0,1.226-.956,2.934,2.934,0,0,0,.44-1.6,3,3,0,0,0-.626-1.863,3.243,3.243,0,0,0-2.741-1.14h-5.418v10.689h2.2v-4.2h2.291q1.177,0,1.5.466a3.072,3.072,0,0,1,.255,1.562,10.387,10.387,0,0,0,.062,1.3,6.279,6.279,0,0,0,.178.877h2.473v-.3A.631.631,0,0,1,2096.976,1533.5Zm-2.392-5.453a2.037,2.037,0,0,1-1.306.344h-2.625v-2.864h2.771a1.554,1.554,0,0,1,1.279.493,1.624,1.624,0,0,1-.119,2.026Z" transform="translate(-2003.52 -1492.671)" fill="#3c3938"/>
      <path id="Path_423" data-name="Path 423" d="M2212.861,1528.338l-2.24-4.646H2208l3.694,6.638v4.051h2.233v-4.022l3.577-6.667h-2.537Z" transform="translate(-2113.081 -1492.671)" fill="#3c3938"/>
    </g>
  </g>
</svg>
